<svg width="200" height="40" viewBox="0 0 71 15" fill="none" xmlns="http://www.w3.org/2000/svg">
<path fill-rule="evenodd" clip-rule="evenodd" d="M1.76557 0.603516C1.98157 0.611516 2.26957 0.619515 2.62957 0.627515C2.98957 0.635515 3.34957 0.639515 3.70957 0.639515C4.10157 0.639515 4.47757 0.635515 4.83757 0.627515C5.20557 0.619515 5.46557 0.615515 5.61757 0.615515C6.65757 0.615515 7.43357 0.791515 7.94557 1.14352C8.46557 1.49552 8.72557 1.94752 8.72557 2.49952C8.72557 2.77952 8.63357 3.06752 8.44957 3.36352C8.26557 3.65152 7.98157 3.91152 7.59757 4.14352C7.22157 4.36752 6.73757 4.52352 6.14557 4.61152V4.63552C6.92957 4.68352 7.55357 4.81952 8.01757 5.04352C8.48957 5.25952 8.82957 5.51952 9.03757 5.82352C9.24557 6.12752 9.34957 6.44352 9.34957 6.77152C9.34957 7.29152 9.20957 7.72352 8.92957 8.06752C8.65757 8.41152 8.26157 8.67152 7.74157 8.84752C7.22957 9.01552 6.61357 9.09952 5.89357 9.09952C5.70157 9.09952 5.42157 9.09552 5.05357 9.08752C4.68557 9.07152 4.24557 9.06352 3.73357 9.06352C3.35757 9.06352 2.98957 9.06752 2.62957 9.07552C2.26957 9.07552 1.98157 9.08352 1.76557 9.09952V8.85952C2.01357 8.84352 2.19757 8.81152 2.31757 8.76352C2.44557 8.71552 2.52957 8.61952 2.56957 8.47552C2.61757 8.33152 2.64157 8.11552 2.64157 7.82752V1.87551C2.64157 1.57951 2.61757 1.36352 2.56957 1.22752C2.52957 1.08352 2.44557 0.987515 2.31757 0.939516C2.19757 0.883515 2.01357 0.851515 1.76557 0.843515V0.603516ZM5.50957 0.843515C5.22157 0.843515 5.03357 0.911515 4.94557 1.04752C4.85757 1.18352 4.81357 1.45952 4.81357 1.87551V4.58752H5.23357C5.57757 4.58752 5.84157 4.49952 6.02557 4.32352C6.20957 4.13952 6.33757 3.89952 6.40957 3.60352C6.48157 3.29952 6.51757 2.97552 6.51757 2.63152C6.51757 2.03952 6.43757 1.59552 6.27757 1.29952C6.12557 0.995515 5.86957 0.843515 5.50957 0.843515ZM4.81357 7.82752V4.79152H5.14957C5.84557 4.79152 6.34157 4.95952 6.63757 5.29552C6.94157 5.63152 7.09357 6.10752 7.09357 6.72352C7.09357 7.39552 6.97357 7.91552 6.73357 8.28352C6.50157 8.64352 6.12957 8.82352 5.61757 8.82352C5.39357 8.82352 5.22557 8.79952 5.11357 8.75152C5.00157 8.70352 4.92157 8.60752 4.87357 8.46352C4.83357 8.31952 4.81357 8.10752 4.81357 7.82752ZM14.1676 2.71552C14.4396 2.71552 14.6556 2.77552 14.8156 2.89552C14.9756 3.00752 15.0916 3.15552 15.1636 3.33952C15.2356 3.51552 15.2716 3.69152 15.2716 3.86752C15.2716 4.19552 15.1756 4.45952 14.9836 4.65952C14.7996 4.85952 14.5556 4.95952 14.2516 4.95952C13.9316 4.95952 13.6876 4.88752 13.5196 4.74352C13.3516 4.59152 13.2676 4.39152 13.2676 4.14352C13.2676 3.89552 13.3196 3.69152 13.4236 3.53152C13.5356 3.37152 13.6716 3.23552 13.8316 3.12352C13.7116 3.10752 13.5956 3.12352 13.4836 3.17152C13.3556 3.20352 13.2356 3.26352 13.1236 3.35152C13.0116 3.43952 12.9156 3.54352 12.8356 3.66352C12.7556 3.78352 12.6916 3.91552 12.6436 4.05952C12.6036 4.19552 12.5836 4.33552 12.5836 4.47952V7.86352C12.5836 8.24752 12.6676 8.50752 12.8356 8.64352C13.0116 8.77952 13.2876 8.84752 13.6636 8.84752V9.09952C13.4796 9.09152 13.2076 9.08352 12.8476 9.07552C12.4876 9.05952 12.1156 9.05152 11.7316 9.05152C11.3876 9.05152 11.0396 9.05952 10.6876 9.07552C10.3436 9.08352 10.0876 9.09152 9.91957 9.09952V8.84752C10.1836 8.84752 10.3676 8.78752 10.4716 8.66752C10.5836 8.54752 10.6396 8.31952 10.6396 7.98352V4.19152C10.6396 3.83152 10.5876 3.56752 10.4836 3.39952C10.3796 3.22352 10.1916 3.13552 9.91957 3.13552V2.88352C10.1756 2.90752 10.4236 2.91952 10.6636 2.91952C11.0236 2.91952 11.3636 2.90752 11.6836 2.88352C12.0116 2.85152 12.3116 2.80752 12.5836 2.75152V3.73552C12.6796 3.52752 12.8036 3.34752 12.9556 3.19552C13.1156 3.04352 13.2956 2.92752 13.4956 2.84752C13.7036 2.75952 13.9276 2.71552 14.1676 2.71552ZM18.6065 2.71552C19.2065 2.71552 19.7305 2.82352 20.1785 3.03952C20.6345 3.24752 20.9865 3.59152 21.2345 4.07152C21.4905 4.55152 21.6185 5.19152 21.6185 5.99152C21.6185 6.79152 21.4905 7.43152 21.2345 7.91152C20.9865 8.39152 20.6345 8.73952 20.1785 8.95552C19.7305 9.16352 19.2065 9.26752 18.6065 9.26752C18.0145 9.26752 17.4905 9.16352 17.0345 8.95552C16.5865 8.73952 16.2345 8.39152 15.9785 7.91152C15.7225 7.43152 15.5945 6.79152 15.5945 5.99152C15.5945 5.19152 15.7225 4.55152 15.9785 4.07152C16.2345 3.59152 16.5865 3.24752 17.0345 3.03952C17.4905 2.82352 18.0145 2.71552 18.6065 2.71552ZM17.8985 3.67552C17.7145 4.14752 17.6225 4.91952 17.6225 5.99152C17.6225 7.06352 17.7145 7.83952 17.8985 8.31952C18.0905 8.79152 18.3265 9.02752 18.6065 9.02752C18.8945 9.02752 19.1305 8.79152 19.3145 8.31952C19.4985 7.83952 19.5905 7.06352 19.5905 5.99152C19.5905 4.91952 19.4985 4.14752 19.3145 3.67552C19.1305 3.19552 18.8945 2.95552 18.6065 2.95552C18.3265 2.95552 18.0905 3.19552 17.8985 3.67552ZM25.2382 2.88352V3.13552C25.0622 3.13552 24.9142 3.14752 24.7942 3.17152C24.6742 3.18752 24.5902 3.23552 24.5422 3.31552C24.5022 3.39552 24.5062 3.52352 24.5542 3.69952L25.5953 7.06041L26.7622 2.88352L26.7732 2.88874L26.7742 2.88352C26.9502 2.89152 27.1302 2.89552 27.3142 2.89552C27.4982 2.89552 27.6782 2.89152 27.8542 2.88352L29.3085 7.36935L29.9542 5.30752C30.1062 4.81152 30.1622 4.40752 30.1222 4.09552C30.0902 3.78352 29.9862 3.55152 29.8102 3.39952C29.6422 3.23952 29.4302 3.15152 29.1742 3.13552V2.88352C29.2862 2.89152 29.4262 2.89952 29.5942 2.90752C29.7622 2.91552 29.9262 2.92352 30.0862 2.93152H30.4702C30.6222 2.93152 30.7902 2.92752 30.9742 2.91952C31.1582 2.91152 31.2982 2.89952 31.3942 2.88352V3.13552C31.2422 3.18352 31.0942 3.28352 30.9502 3.43552C30.8142 3.57952 30.6822 3.84352 30.5542 4.22752L29.0062 9.11152C28.8462 9.09552 28.6862 9.08752 28.5262 9.08752C28.3662 9.08752 28.2022 9.09552 28.0342 9.11152L26.5111 4.79421L25.2982 9.11152C25.1382 9.09552 24.9742 9.08752 24.8062 9.08752C24.6462 9.08752 24.4862 9.09552 24.3262 9.11152L22.4542 3.80752C22.3422 3.48752 22.2182 3.29552 22.0822 3.23152C21.9542 3.16752 21.8462 3.13552 21.7582 3.13552V2.88352C22.0462 2.90752 22.3462 2.92752 22.6582 2.94352C22.9702 2.95152 23.3102 2.95552 23.6782 2.95552C23.9262 2.95552 24.1862 2.94752 24.4582 2.93152C24.7382 2.91552 24.9982 2.89952 25.2382 2.88352ZM40.685 0.603516C40.653 0.987515 40.629 1.35552 40.613 1.70752C40.605 2.05952 40.601 2.33152 40.601 2.52352C40.601 2.69952 40.605 2.86352 40.613 3.01552C40.621 3.16752 40.629 3.29952 40.637 3.41152H40.361C40.241 2.77152 40.073 2.26752 39.857 1.89952C39.649 1.52352 39.405 1.25952 39.125 1.10752C38.853 0.955515 38.553 0.879515 38.225 0.879515H37.949C37.733 0.879515 37.565 0.899515 37.445 0.939516C37.333 0.971515 37.257 1.04351 37.217 1.15551C37.185 1.26752 37.169 1.44352 37.169 1.68352V4.73152H37.433C37.665 4.73152 37.869 4.68352 38.045 4.58752C38.221 4.48352 38.369 4.35152 38.489 4.19152C38.617 4.03152 38.721 3.85952 38.801 3.67552C38.881 3.49152 38.937 3.31552 38.969 3.14752H39.245C39.213 3.60352 39.197 3.95152 39.197 4.19152C39.205 4.43152 39.209 4.65152 39.209 4.85152C39.209 5.05152 39.213 5.27152 39.221 5.51152C39.229 5.75152 39.249 6.09952 39.281 6.55552H39.005C38.957 6.26752 38.869 6.00352 38.741 5.76352C38.613 5.52352 38.441 5.33152 38.225 5.18752C38.017 5.04352 37.753 4.97152 37.433 4.97152H37.169V7.73152C37.169 8.05152 37.201 8.29152 37.265 8.45152C37.329 8.60352 37.457 8.70352 37.649 8.75152C37.841 8.79952 38.117 8.82752 38.477 8.83552V9.09952C38.213 9.09152 37.873 9.08352 37.457 9.07552C37.041 9.06752 36.605 9.06352 36.149 9.06352C35.789 9.06352 35.433 9.06752 35.081 9.07552C34.737 9.08352 34.417 9.09152 34.121 9.09952V8.85952C34.369 8.84352 34.553 8.81152 34.673 8.76352C34.801 8.71552 34.885 8.61952 34.925 8.47552C34.973 8.33152 34.997 8.11552 34.997 7.82752V1.87551C34.997 1.57951 34.973 1.36352 34.925 1.22752C34.885 1.08352 34.801 0.987515 34.673 0.939516C34.553 0.883515 34.369 0.851515 34.121 0.843515V0.603516C34.465 0.611516 34.825 0.619515 35.201 0.627515C35.585 0.627515 35.961 0.631515 36.329 0.639515H37.373H38.177H39.425C39.897 0.631515 40.317 0.619515 40.685 0.603516ZM45.4684 2.71552C45.7404 2.71552 45.9564 2.77552 46.1164 2.89552C46.2764 3.00752 46.3924 3.15552 46.4644 3.33952C46.5364 3.51552 46.5724 3.69152 46.5724 3.86752C46.5724 4.19552 46.4764 4.45952 46.2844 4.65952C46.1004 4.85952 45.8564 4.95952 45.5524 4.95952C45.2324 4.95952 44.9884 4.88752 44.8204 4.74352C44.6524 4.59152 44.5684 4.39152 44.5684 4.14352C44.5684 3.89552 44.6204 3.69152 44.7244 3.53152C44.8364 3.37152 44.9724 3.23552 45.1324 3.12352C45.0124 3.10752 44.8964 3.12352 44.7844 3.17152C44.6564 3.20352 44.5364 3.26352 44.4244 3.35152C44.3124 3.43952 44.2164 3.54352 44.1364 3.66352C44.0564 3.78352 43.9924 3.91552 43.9444 4.05952C43.9044 4.19552 43.8844 4.33552 43.8844 4.47952V7.86352C43.8844 8.24752 43.9684 8.50752 44.1364 8.64352C44.3124 8.77952 44.5884 8.84752 44.9644 8.84752V9.09952C44.7804 9.09152 44.5084 9.08352 44.1484 9.07552C43.7884 9.05952 43.4164 9.05152 43.0324 9.05152C42.6884 9.05152 42.3404 9.05952 41.9884 9.07552C41.6444 9.08352 41.3884 9.09152 41.2204 9.09952V8.84752C41.4844 8.84752 41.6684 8.78752 41.7724 8.66752C41.8844 8.54752 41.9404 8.31952 41.9404 7.98352V4.19152C41.9404 3.83152 41.8884 3.56752 41.7844 3.39952C41.6804 3.22352 41.4924 3.13552 41.2204 3.13552V2.88352C41.4764 2.90752 41.7244 2.91952 41.9644 2.91952C42.3244 2.91952 42.6644 2.90752 42.9844 2.88352C43.3124 2.85152 43.6124 2.80752 43.8844 2.75152V3.73552C43.9804 3.52752 44.1044 3.34752 44.2564 3.19552C44.4164 3.04352 44.5964 2.92752 44.7964 2.84752C45.0044 2.75952 45.2284 2.71552 45.4684 2.71552ZM48.5359 9.18352C48.1679 9.18352 47.8639 9.11552 47.6239 8.97952C47.3839 8.83552 47.2079 8.64752 47.0959 8.41552C46.9839 8.18352 46.9279 7.93552 46.9279 7.67152C46.9279 7.33552 47.0039 7.05952 47.1559 6.84352C47.3159 6.62752 47.5199 6.45552 47.7679 6.32752C48.0159 6.19152 48.2759 6.07952 48.5479 5.99152C48.8199 5.90352 49.0799 5.81952 49.3279 5.73952C49.5759 5.65152 49.7759 5.55152 49.9279 5.43952C50.0799 5.31952 50.1559 5.16752 50.1559 4.98352V3.98752C50.1559 3.81152 50.1279 3.64752 50.0719 3.49552C50.0239 3.33552 49.9319 3.20752 49.7959 3.11152C49.6679 3.00752 49.4879 2.95552 49.2559 2.95552C49.1119 2.95552 48.9719 2.97552 48.8359 3.01552C48.6999 3.05552 48.5799 3.11952 48.4759 3.20752C48.7319 3.29552 48.9199 3.42752 49.0399 3.60352C49.1679 3.77952 49.2319 3.97552 49.2319 4.19152C49.2319 4.48752 49.1279 4.72352 48.9199 4.89952C48.7199 5.06752 48.4799 5.15152 48.1999 5.15152C47.8959 5.15152 47.6599 5.05552 47.4919 4.86352C47.3319 4.67152 47.2519 4.43952 47.2519 4.16752C47.2519 3.92752 47.3119 3.72752 47.4319 3.56752C47.5519 3.39952 47.7279 3.24752 47.9599 3.11152C48.1919 2.97552 48.4719 2.87552 48.7999 2.81152C49.1279 2.74752 49.4759 2.71552 49.8439 2.71552C50.2199 2.71552 50.5639 2.75552 50.8759 2.83552C51.1959 2.90752 51.4679 3.05552 51.6919 3.27952C51.8679 3.46352 51.9799 3.68752 52.0279 3.95152C52.0759 4.21552 52.0999 4.55152 52.0999 4.95952V8.19952C52.0999 8.39952 52.1159 8.53952 52.1479 8.61952C52.1879 8.69152 52.2479 8.72752 52.3279 8.72752C52.3999 8.72752 52.4679 8.70752 52.5319 8.66752C52.5959 8.62752 52.6599 8.58352 52.7239 8.53552L52.8559 8.73952C52.6799 8.88352 52.4719 8.99552 52.2319 9.07552C51.9919 9.14752 51.7319 9.18352 51.4519 9.18352C51.1319 9.18352 50.8799 9.14352 50.6959 9.06352C50.5199 8.97552 50.3919 8.85952 50.3119 8.71552C50.2399 8.57152 50.1999 8.41152 50.1919 8.23552C50.0159 8.52352 49.7959 8.75552 49.5319 8.93152C49.2679 9.09952 48.9359 9.18352 48.5359 9.18352ZM49.5319 8.31952C49.6599 8.31952 49.7719 8.29552 49.8679 8.24752C49.9719 8.19152 50.0679 8.09952 50.1559 7.97152V5.47552C50.0919 5.58752 50.0039 5.69552 49.8919 5.79952C49.7879 5.89552 49.6759 5.99552 49.5559 6.09952C49.4359 6.19552 49.3199 6.30352 49.2079 6.42352C49.1039 6.54352 49.0159 6.68752 48.9439 6.85552C48.8799 7.01552 48.8479 7.21152 48.8479 7.44352C48.8479 7.75552 48.9119 7.97952 49.0399 8.11552C49.1679 8.25152 49.3319 8.31952 49.5319 8.31952ZM57.6849 2.71552C58.0289 2.71552 58.3049 2.75952 58.5129 2.84752C58.7289 2.93552 58.8969 3.04752 59.0169 3.18352C59.1449 3.33552 59.2369 3.53552 59.2929 3.78352C59.2961 3.79695 59.2991 3.81063 59.3021 3.82457C59.5153 3.40003 59.7923 3.11035 60.1329 2.95552C60.4849 2.79552 60.8729 2.71552 61.2969 2.71552C61.6409 2.71552 61.9169 2.75952 62.1249 2.84752C62.3409 2.93552 62.5089 3.04752 62.6289 3.18352C62.7569 3.33552 62.8489 3.53552 62.9049 3.78352C62.9609 4.02352 62.9889 4.34352 62.9889 4.74352V7.98352C62.9889 8.31952 63.0409 8.54752 63.1449 8.66752C63.2569 8.78752 63.4449 8.84752 63.7089 8.84752V9.09952C63.5489 9.09152 63.3089 9.08352 62.9889 9.07552C62.6769 9.05952 62.3729 9.05152 62.0769 9.05152C61.7729 9.05152 61.4769 9.05952 61.1889 9.07552C60.9009 9.08352 60.6849 9.09152 60.5409 9.09952V8.84752C60.7249 8.84752 60.8529 8.78752 60.9249 8.66752C61.0049 8.54752 61.0449 8.31952 61.0449 7.98352V4.16752C61.0449 3.98352 61.0249 3.82752 60.9849 3.69952C60.9449 3.56352 60.8769 3.46352 60.7809 3.39952C60.6929 3.32752 60.5609 3.29152 60.3849 3.29152C60.2089 3.29152 60.0409 3.34752 59.8809 3.45952C59.7289 3.56352 59.6049 3.70352 59.5089 3.87952C59.4379 4.02162 59.3903 4.17678 59.3662 4.34497C59.3733 4.46758 59.3769 4.60043 59.3769 4.74352V7.98352C59.3769 8.31952 59.4209 8.54752 59.5089 8.66752C59.6049 8.78752 59.7689 8.84752 60.0009 8.84752V9.09952C59.8489 9.09152 59.6249 9.08352 59.3289 9.07552C59.0329 9.05952 58.7449 9.05152 58.4649 9.05152C58.1609 9.05152 57.8649 9.05952 57.5769 9.07552C57.2889 9.08352 57.0729 9.09152 56.9289 9.09952V8.84752C57.1129 8.84752 57.2409 8.78752 57.3129 8.66752C57.3929 8.54752 57.4329 8.31952 57.4329 7.98352V4.16752C57.4329 3.98352 57.4169 3.82752 57.3849 3.69952C57.3529 3.56352 57.2969 3.46352 57.2169 3.39952C57.1369 3.32752 57.0209 3.29152 56.8689 3.29152C56.6929 3.29152 56.5249 3.33952 56.3649 3.43552C56.2129 3.53152 56.0889 3.66752 55.9929 3.84352C55.9049 4.01152 55.8609 4.20352 55.8609 4.41952V7.98352C55.8609 8.31952 55.8969 8.54752 55.9689 8.66752C56.0409 8.78752 56.1729 8.84752 56.3649 8.84752V9.09952C56.2289 9.09152 56.0249 9.08352 55.7529 9.07552C55.4809 9.05952 55.2049 9.05152 54.9249 9.05152C54.5969 9.05152 54.2689 9.05952 53.9409 9.07552C53.6129 9.08352 53.3649 9.09152 53.1969 9.09952V8.84752C53.4609 8.84752 53.6449 8.78752 53.7489 8.66752C53.8609 8.54752 53.9169 8.31952 53.9169 7.98352V4.19152C53.9169 3.83152 53.8649 3.56752 53.7609 3.39952C53.6569 3.22352 53.4689 3.13552 53.1969 3.13552V2.88352C53.4529 2.90752 53.7009 2.91952 53.9409 2.91952C54.3009 2.91952 54.6409 2.90752 54.9609 2.88352C55.2889 2.85152 55.5889 2.80752 55.8609 2.75152V3.72352C56.0449 3.36352 56.2929 3.10752 56.6049 2.95552C56.9249 2.79552 57.2849 2.71552 57.6849 2.71552ZM67.2628 2.71552C67.9668 2.71552 68.5188 2.92352 68.9188 3.33952C69.3188 3.75552 69.5188 4.43952 69.5188 5.39152H66.2932C66.2836 5.46111 66.2788 5.53311 66.2788 5.60752V5.89552C66.2788 6.44752 66.3508 6.88752 66.4948 7.21552C66.6468 7.54352 66.8348 7.77552 67.0588 7.91152C67.2828 8.04752 67.5148 8.11552 67.7548 8.11552C67.8908 8.11552 68.0428 8.09552 68.2108 8.05552C68.3788 8.01552 68.5548 7.93152 68.7388 7.80352C68.9228 7.67552 69.0988 7.48752 69.2668 7.23952L69.4708 7.31152C69.3828 7.62352 69.2308 7.93152 69.0148 8.23552C68.8068 8.53152 68.5388 8.77952 68.2108 8.97952C67.8828 9.17152 67.4868 9.26752 67.0228 9.26752C66.4948 9.26752 66.0228 9.15952 65.6068 8.94352C65.1908 8.71952 64.8588 8.37152 64.6108 7.89952C64.3708 7.41952 64.2508 6.79552 64.2508 6.02752C64.2508 5.26752 64.3828 4.64352 64.6468 4.15552C64.9108 3.66752 65.2708 3.30752 65.7268 3.07552C66.1828 2.83552 66.6948 2.71552 67.2628 2.71552ZM67.8868 5.16352H66.2591C66.302 4.38371 66.4046 3.82771 66.5668 3.49552C66.7348 3.15152 66.9388 2.97952 67.1788 2.97952C67.3548 2.97952 67.4948 3.07952 67.5988 3.27952C67.7108 3.47952 67.7908 3.74752 67.8388 4.08352C67.8868 4.41152 67.9028 4.77152 67.8868 5.16352ZM32.6801 10.4035V13.4205C32.6801 13.6258 32.7174 13.7658 32.7921 13.8405C32.8714 13.9152 33.0021 13.9525 33.1841 13.9525V14.0995C33.0907 14.0948 32.9531 14.0902 32.7711 14.0855C32.5937 14.0762 32.4094 14.0715 32.2181 14.0715C31.9801 14.0715 31.7491 14.0762 31.5251 14.0855C31.3057 14.0902 31.1354 14.0948 31.0141 14.0995V13.9525C31.2241 13.9525 31.3851 13.9152 31.4971 13.8405C31.6137 13.7612 31.6721 13.6072 31.6721 13.3785V11.6705C31.6721 11.4465 31.6534 11.2808 31.6161 11.1735C31.5787 11.0662 31.5087 10.9962 31.4061 10.9635C31.3034 10.9308 31.1634 10.9145 30.9861 10.9145V10.7605C31.3874 10.7512 31.7187 10.7208 31.9801 10.6695C32.2461 10.6182 32.4794 10.5295 32.6801 10.4035ZM35.6818 10.3825C36.0551 10.3825 36.3841 10.4595 36.6688 10.6135C36.9534 10.7628 37.1774 10.9775 37.3408 11.2575C37.5041 11.5328 37.5858 11.8572 37.5858 12.2305C37.5858 12.6038 37.5018 12.9398 37.3338 13.2385C37.1704 13.5325 36.9394 13.7658 36.6408 13.9385C36.3468 14.1112 36.0014 14.1975 35.6048 14.1975C35.2408 14.1975 34.9141 14.1205 34.6248 13.9665C34.3401 13.8125 34.1138 13.5978 33.9458 13.3225C33.7824 13.0425 33.7008 12.7158 33.7008 12.3425C33.7008 11.9738 33.7824 11.6425 33.9458 11.3485C34.1091 11.0498 34.3401 10.8142 34.6388 10.6415C34.9374 10.4688 35.2851 10.3825 35.6818 10.3825ZM35.6188 10.5085C35.3668 10.5085 35.1591 10.6695 34.9958 10.9915C34.8371 11.3088 34.7578 11.7522 34.7578 12.3215C34.7578 12.7415 34.7998 13.0798 34.8838 13.3365C34.9678 13.5932 35.0774 13.7798 35.2128 13.8965C35.3528 14.0132 35.5044 14.0715 35.6678 14.0715C35.9198 14.0715 36.1251 13.9105 36.2838 13.5885C36.4471 13.2665 36.5288 12.8208 36.5288 12.2515C36.5288 11.8315 36.4868 11.4932 36.4028 11.2365C36.3188 10.9798 36.2068 10.7955 36.0668 10.6835C35.9314 10.5668 35.7821 10.5085 35.6188 10.5085ZM39.8715 10.4035V13.4205C39.8715 13.6258 39.9088 13.7658 39.9835 13.8405C40.0628 13.9152 40.1935 13.9525 40.3755 13.9525V14.0995C40.2821 14.0948 40.1445 14.0902 39.9625 14.0855C39.7851 14.0762 39.6008 14.0715 39.4095 14.0715C39.1715 14.0715 38.9405 14.0762 38.7165 14.0855C38.4971 14.0902 38.3268 14.0948 38.2055 14.0995V13.9525C38.4155 13.9525 38.5765 13.9152 38.6885 13.8405C38.8051 13.7612 38.8635 13.6072 38.8635 13.3785V11.6705C38.8635 11.4465 38.8448 11.2808 38.8075 11.1735C38.7701 11.0662 38.7001 10.9962 38.5975 10.9635C38.4948 10.9308 38.3548 10.9145 38.1775 10.9145V10.7605C38.5788 10.7512 38.9101 10.7208 39.1715 10.6695C39.4375 10.6182 39.6708 10.5295 39.8715 10.4035ZM2.26467 13.6955L0.821289 12.2521L2.26466 10.8087L3.45804 12.0021L27.0899 12.0021L28.2833 10.8087L29.7267 12.2521L28.2833 13.6954L27.0899 12.5021L3.45804 12.5021L2.26467 13.6955ZM41.6631 12.2521L43.1065 13.6955L44.2998 12.5021H67.9375L69.1309 13.6955L70.5743 12.2521L69.1309 10.8087L67.9375 12.0021H44.2998L43.1065 10.8087L41.6631 12.2521Z" fill="white"/>
</svg>


